<svg width="30" height="30" viewBox="0 0 30 30" fill="none" xmlns="http://www.w3.org/2000/svg">
<rect width="30" height="30" rx="6" fill="#00D659"/>
<path d="M11.5414 14.222C12.4671 16.0413 13.9585 17.5263 15.7778 18.4584L17.1921 17.0441C17.3657 16.8705 17.6228 16.8127 17.8478 16.8898C18.5678 17.1277 19.3457 17.2563 20.1428 17.2563C20.4964 17.2563 20.7857 17.5455 20.7857 17.8991V20.1427C20.7857 20.4963 20.4964 20.7855 20.1428 20.7855C14.1064 20.7855 9.21426 15.8934 9.21426 9.85697C9.21426 9.5034 9.50355 9.21411 9.85712 9.21411H12.1071C12.4607 9.21411 12.75 9.5034 12.75 9.85697C12.75 10.6605 12.8785 11.432 13.1164 12.152C13.1871 12.377 13.1357 12.6277 12.9557 12.8077L11.5414 14.222Z" fill="white"/>
</svg>
